<svg id="Capa_1" enable-background="new 0 0 512 512" height="512" viewBox="0 0 512 512" width="512" xmlns="http://www.w3.org/2000/svg"><g><g><g><g><path d="m425.043 0-67.155 67.156-38.656 58.313-52.944 52.944c-11.244-.92-22.123-3.884-32.414-8.856-46.701-22.582-102.722-13.111-139.4 23.568l-48.074 48.075c-61.866 61.866-61.866 162.529 0 224.395 30.939 30.939 71.568 46.408 112.207 46.405 40.629-.003 81.266-15.468 112.194-46.398l48.074-48.074c18.004-18.004 29.772-40.807 34.033-65.954 4.242-25.113.624-50.51-10.463-73.443-4.973-10.294-7.938-21.174-8.857-32.419l52.944-52.945 58.313-38.656 67.155-67.154zm44.501 86.957-33.5 33.501-44.501-44.501 33.501-33.501zm-97.013 12.443 40.069 40.069-31.994 21.209-29.284-29.284zm-40.216 55.442 24.844 24.843-84.64 84.642c-2.904-5.134-6.496-9.896-10.722-14.122s-8.988-7.818-14.122-10.722zm-117.004 106.137c1.049 0 2.102.046 3.158.139 8.324.725 16.172 4.389 22.098 10.315 5.932 5.932 9.595 13.782 10.315 22.118.922 10.547-2.837 20.885-10.315 28.363-6.741 6.741-15.704 10.455-25.238 10.456-9.535 0-18.499-3.713-25.242-10.456-13.917-13.918-13.917-36.563 0-50.481 6.735-6.735 15.785-10.454 25.224-10.454zm-157.672 172.156 16.389-16.389 21.228 21.229-16.388 16.387c-3.891-3.077-7.649-6.403-11.241-9.994-3.589-3.59-6.913-7.345-9.988-11.233zm257.776-141.94c8.361 17.295 11.089 36.445 7.892 55.371-3.214 18.964-12.087 36.161-25.661 49.735l-48.074 48.074c-25.08 25.08-58.021 37.62-90.967 37.618-18.236 0-36.472-3.851-53.376-11.537l32.482-32.482-63.683-63.684-32.484 32.484c-21.57-47.438-12.881-105.381 26.084-144.346l48.074-48.075c27.654-27.655 69.892-34.796 105.107-17.767 6.427 3.105 13.029 5.612 19.773 7.533l-26.86 26.86c-16.799.401-32.834 7.196-44.862 19.225-25.622 25.622-25.622 67.314 0 92.936 12.413 12.414 28.918 19.25 46.472 19.249 17.552-.002 34.053-6.838 46.464-19.249 12.027-12.027 18.829-28.07 19.226-44.863l26.859-26.859c1.922 6.746 4.429 13.349 7.534 19.777z"/></g></g></g><g><g><g><path d="m122.363 311.248h30.021v126.762h-30.021z" transform="matrix(.707 -.707 .707 .707 -224.667 206.865)"/></g></g></g></g></svg>